<?xml version="1.0" standalone="no"?>
<!DOCTYPE svg PUBLIC "-//W3C//DTD SVG 20010904//EN"
 "http://www.w3.org/TR/2001/REC-SVG-20010904/DTD/svg10.dtd">
<svg version="1.0" xmlns="http://www.w3.org/2000/svg"
 width="1280.000000pt" height="720.000000pt" viewBox="0 0 1280.000000 720.000000"
 preserveAspectRatio="xMidYMid meet">

<g transform="translate(0.000000,720.000000) scale(0.100000,-0.100000)"
fill="#000000" stroke="none">
<path d="M6105 6124 c-687 -70 -1262 -371 -1562 -817 -314 -468 -256 -1030
152 -1456 44 -46 113 -110 153 -143 72 -59 72 -59 72 -31 0 16 -8 33 -18 40
-84 52 -244 221 -329 348 -159 236 -222 513 -177 776 59 343 276 644 639 885
223 149 554 276 855 328 731 128 1479 -38 1979 -439 97 -77 239 -229 300 -319
263 -389 266 -845 8 -1232 -60 -91 -162 -210 -231 -270 -39 -33 -56 -55 -56
-72 l0 -23 28 20 c15 11 50 42 78 68 413 390 525 921 292 1388 -86 172 -270
383 -452 517 -448 332 -1103 495 -1731 432z"/>
<path d="M6936 5635 c-77 -36 -141 -66 -142 -68 -2 -1 34 -25 80 -53 l82 -51
99 44 c55 25 101 46 102 47 7 6 -62 146 -71 146 -6 -1 -74 -30 -150 -65z"/>
<path d="M6588 5477 c-49 -23 -88 -45 -88 -49 0 -8 146 -98 159 -98 5 0 53 21
107 46 l98 46 -77 49 c-43 27 -85 49 -95 48 -9 0 -56 -20 -104 -42z"/>
<path d="M6298 5342 c-54 -24 -98 -48 -98 -51 0 -3 36 -28 79 -54 l79 -48 94
42 c51 23 97 46 101 49 6 6 -83 67 -148 102 -5 3 -54 -15 -107 -40z"/>
<path d="M5993 5205 c-51 -25 -93 -48 -93 -52 0 -4 36 -29 80 -55 l80 -47 101
48 c78 36 98 49 88 58 -25 20 -149 93 -157 92 -4 0 -49 -20 -99 -44z"/>
<path d="M5693 5067 c-51 -23 -93 -45 -93 -48 0 -9 145 -99 158 -99 15 0 202
83 202 90 0 7 -156 100 -167 100 -4 -1 -50 -20 -100 -43z"/>
<path d="M5388 4928 c-49 -23 -88 -44 -88 -48 0 -8 148 -100 160 -100 20 0
201 92 194 99 -29 25 -146 91 -161 90 -10 0 -57 -19 -105 -41z"/>
<path d="M7238 4871 c-48 -9 -91 -20 -96 -26 -14 -17 -73 -157 -68 -162 4 -5
249 32 289 43 20 6 21 16 6 101 -13 72 -3 69 -131 44z"/>
<path d="M5095 4793 c-55 -25 -101 -46 -102 -47 -2 -2 63 -135 70 -142 3 -3
71 25 151 62 81 37 143 71 138 76 -8 8 -152 99 -155 97 -1 0 -47 -21 -102 -46z"/>
<path d="M6930 4819 c-25 -4 -60 -11 -78 -14 -31 -6 -37 -14 -73 -92 -22 -47
-38 -87 -36 -89 4 -4 216 31 221 37 5 5 76 161 76 165 0 6 -62 2 -110 -7z"/>
<path d="M6588 4761 c-48 -9 -92 -20 -97 -26 -13 -15 -72 -157 -67 -163 3 -2
53 4 111 14 l106 19 35 78 c19 43 34 82 34 87 0 13 -16 12 -122 -9z"/>
<path d="M6305 4714 c-38 -7 -85 -16 -103 -19 -31 -6 -37 -13 -73 -92 -22 -47
-38 -87 -36 -89 3 -3 151 19 203 31 15 3 31 29 57 89 20 47 37 87 37 90 0 7 5
7 -85 -10z"/>
<path d="M5938 4651 c-48 -9 -92 -20 -97 -26 -13 -14 -72 -157 -67 -162 2 -3
52 3 109 12 l105 18 36 79 c20 44 36 84 36 89 0 12 -16 10 -122 -10z"/>
<path d="M6930 4570 c-250 -43 -754 -129 -1120 -190 -366 -62 -668 -115 -672
-119 -6 -5 179 -1121 187 -1129 2 -2 340 53 752 122 1246 210 1504 254 1509
259 3 2 -36 247 -86 543 -104 618 -99 594 -108 593 -4 -1 -212 -36 -462 -79z
m298 -142 c5 -7 25 -107 45 -223 37 -220 37 -240 -6 -250 -57 -13 -1755 -296
-1780 -297 -15 -1 -32 3 -38 9 -5 5 -26 107 -46 227 -33 195 -35 218 -22 232
11 10 162 40 490 96 261 44 654 111 874 148 425 72 467 77 483 58z m107 -591
c29 -133 30 -183 6 -196 -10 -6 -313 -60 -672 -121 -360 -60 -764 -128 -898
-151 -172 -30 -249 -39 -260 -32 -20 13 -53 190 -40 215 11 20 -29 12 544 109
264 44 660 111 880 148 262 45 406 65 417 59 10 -5 20 -19 23 -31z"/>
<path d="M7050 4338 c-58 -10 -437 -74 -844 -143 -406 -68 -741 -126 -743
-129 -6 -6 44 -306 52 -315 4 -3 147 18 318 47 592 99 1381 233 1383 235 3 4
-51 316 -56 320 -3 2 -52 -5 -110 -15z"/>
<path d="M7200 3778 c-25 -4 -367 -62 -760 -129 -393 -66 -754 -127 -802 -136
l-87 -15 6 -32 c3 -17 9 -34 12 -38 5 -6 756 117 1651 270 38 6 45 11 48 32 5
43 -16 58 -68 48z"/>
<path d="M5675 4609 c-27 -5 -74 -14 -103 -20 l-54 -11 -39 -85 c-22 -47 -38
-87 -36 -89 4 -4 217 32 222 38 5 5 75 165 75 172 0 7 3 7 -65 -5z"/>
<path d="M5235 4534 c-76 -14 -140 -26 -142 -27 -5 -5 20 -142 27 -150 4 -5
55 -1 113 8 l105 18 36 78 c20 43 36 83 36 89 0 13 -10 12 -175 -16z"/>
<path d="M8041 3044 c-21 -15 -101 -117 -101 -129 0 -3 34 17 75 45 48 33 75
57 75 69 0 26 -23 33 -49 15z"/>
<path d="M6625 2868 c-48 -140 -192 -522 -206 -550 -16 -32 -25 -38 -64 -44
-77 -11 -50 -19 63 -18 133 1 150 4 89 14 -27 5 -51 11 -54 14 -3 2 12 57 34
121 l39 117 89 0 c50 0 95 0 102 -1 10 -1 83 -200 83 -229 0 -6 -12 -12 -27
-13 -29 0 -75 -16 -58 -19 37 -7 245 -6 245 1 0 4 -18 13 -39 19 -21 5 -42 18
-46 28 -3 9 -37 103 -75 207 -110 302 -134 360 -153 363 -9 2 -19 -2 -22 -10z
m44 -196 c23 -56 41 -107 41 -112 0 -6 -38 -10 -90 -10 l-90 0 26 72 c35 95
64 162 68 157 2 -2 23 -50 45 -107z"/>
<path d="M10335 2868 c-44 -128 -192 -522 -206 -549 -15 -31 -25 -38 -66 -46
-50 -9 -117 -1 -140 18 -10 9 -13 66 -13 265 0 139 3 255 8 257 4 3 25 8 47
11 22 4 44 11 50 17 7 7 -21 9 -84 7 l-94 -3 -72 -180 c-39 -99 -83 -202 -97
-230 l-26 -50 -14 35 c-12 27 -188 418 -193 427 0 1 -42 4 -93 6 -65 3 -92 1
-89 -7 2 -6 25 -14 51 -18 27 -4 50 -9 52 -11 5 -5 -15 -414 -24 -482 -7 -49
-8 -50 -50 -58 -75 -15 -45 -24 78 -25 120 -1 161 11 74 21 -26 2 -50 11 -55
18 -10 16 -10 408 0 454 5 26 12 17 67 -100 51 -107 123 -280 158 -379 8 -24
18 -13 40 44 65 170 181 438 188 434 10 -6 2 -439 -7 -455 -3 -4 -21 -11 -40
-15 -20 -3 -38 -11 -41 -16 -6 -10 501 -6 511 4 3 3 -15 8 -40 10 -25 3 -48 8
-52 11 -6 7 67 230 78 237 6 4 87 4 186 0 10 0 83 -199 83 -227 0 -7 -17 -13
-40 -15 -22 -2 -41 -7 -43 -13 -1 -5 48 -10 121 -11 125 -1 152 7 83 26 -21 5
-42 18 -45 27 -4 9 -45 122 -92 250 -47 129 -94 254 -104 278 -19 43 -46 59
-55 33z m44 -196 c23 -56 41 -107 41 -112 0 -6 -38 -10 -90 -10 l-90 0 26 72
c35 95 64 162 68 157 2 -2 23 -50 45 -107z"/>
<path d="M2627 2860 c-136 -35 -235 -152 -245 -291 -9 -133 51 -240 166 -295
69 -33 206 -43 287 -22 46 12 50 16 62 58 8 25 12 54 11 64 -2 15 -8 11 -28
-20 -45 -70 -150 -108 -236 -85 -67 18 -106 51 -139 115 -26 52 -29 70 -30
150 0 106 19 172 66 229 85 103 251 106 317 7 30 -45 42 -49 42 -11 0 53 -16
79 -57 91 -54 16 -171 21 -216 10z"/>
<path d="M7355 2852 c-51 -25 -85 -61 -94 -104 -18 -83 25 -142 158 -216 97
-54 137 -90 146 -131 16 -72 -63 -144 -147 -136 -63 7 -127 64 -143 128 -4 15
-11 27 -15 27 -9 0 -19 -118 -12 -138 2 -6 29 -19 59 -28 69 -20 173 -15 226
10 51 25 89 91 89 155 0 87 -31 121 -187 205 -90 49 -125 82 -125 119 0 60 46
97 120 97 59 0 95 -22 120 -75 12 -25 24 -45 26 -45 2 0 4 25 4 55 0 47 -3 57
-25 71 -40 26 -151 29 -200 6z"/>
<path d="M8337 2863 c-10 -17 -39 -154 -34 -159 3 -3 27 17 54 45 l49 51 71 0
70 0 6 -112 c10 -163 8 -353 -2 -381 -7 -18 -22 -27 -55 -36 -25 -6 -46 -15
-46 -20 0 -9 276 -8 285 1 3 3 -15 11 -40 17 -25 6 -48 17 -50 24 -2 6 -6 123
-9 260 l-5 247 80 0 c44 0 89 -4 99 -10 10 -5 24 -27 30 -47 19 -60 30 -62 31
-8 0 28 2 65 3 82 4 47 -11 64 -31 36 -15 -23 -19 -23 -239 -23 -213 0 -224 1
-234 20 -11 20 -25 26 -33 13z"/>
<path d="M3578 2852 c-69 -3 -97 -22 -34 -22 19 0 38 -5 41 -11 4 -6 8 -108 9
-227 3 -240 7 -260 68 -305 46 -34 91 -47 163 -47 119 0 201 51 225 140 6 23
10 122 9 236 -1 210 0 214 49 214 13 0 22 5 20 10 -4 12 -188 21 -188 9 0 -4
16 -13 35 -19 19 -6 40 -20 46 -31 6 -12 11 -102 12 -217 2 -228 -4 -249 -83
-290 -38 -20 -56 -23 -117 -19 -78 4 -111 20 -140 64 -16 23 -18 57 -21 246
-4 240 -2 247 54 247 21 0 34 5 34 13 0 13 -40 15 -182 9z"/>
<path d="M4223 2853 c-57 -6 -55 -23 2 -23 28 0 47 -5 50 -12 6 -22 14 -471 8
-501 -4 -22 -13 -29 -49 -38 -91 -23 -46 -31 137 -25 195 7 231 15 282 64 41
38 57 74 57 125 0 58 -31 104 -93 135 l-47 25 27 17 c95 58 91 157 -8 215 -29
17 -53 20 -179 21 -80 1 -164 -1 -187 -3z m296 -29 c93 -37 88 -179 -8 -216
-44 -17 -120 -21 -136 -8 -20 16 -22 226 -2 233 27 11 109 6 146 -9z m28 -273
c47 -22 71 -53 80 -104 14 -90 -48 -159 -151 -165 -95 -6 -104 6 -112 145 -4
62 -4 119 -1 128 9 23 130 20 184 -4z"/>
<path d="M5654 2851 c3 -5 18 -12 33 -16 54 -13 53 -10 53 -266 0 -131 -4
-249 -10 -263 -6 -18 -19 -27 -45 -32 -75 -14 -41 -24 87 -26 324 -3 370 5
448 78 129 120 131 314 6 440 -79 80 -136 94 -383 94 -111 0 -192 -4 -189 -9z
m373 -37 c118 -32 185 -121 192 -253 4 -94 -9 -136 -60 -195 -54 -62 -108 -88
-189 -93 -82 -5 -130 16 -142 64 -5 18 -7 135 -6 260 l3 228 35 6 c45 7 101 1
167 -17z"/>
<path d="M2970 2840 c0 -6 10 -10 23 -10 12 0 32 -3 45 -6 l22 -6 0 -264 0
-264 -26 -10 c-14 -6 -36 -10 -49 -10 -13 0 -26 -4 -29 -9 -3 -5 106 -8 254
-8 143 1 260 2 260 2 0 7 22 124 26 138 9 28 -13 19 -25 -12 -7 -15 -28 -43
-46 -61 -39 -38 -89 -49 -210 -46 l-70 1 0 267 c0 146 3 269 6 272 4 4 29 9
57 13 28 3 49 9 47 13 -7 12 -285 11 -285 0z"/>
<path d="M4780 2840 c0 -5 15 -10 33 -10 63 0 62 6 65 -275 2 -187 0 -260 -9
-271 -6 -8 -26 -14 -45 -14 -18 0 -36 -5 -39 -10 -4 -7 85 -9 271 -8 l278 3 6
25 c4 14 10 49 14 78 8 64 -2 62 -40 -8 -35 -65 -67 -77 -210 -79 -60 -1 -118
1 -127 5 -15 5 -17 23 -17 140 l0 134 108 0 c121 0 136 -7 148 -68 14 -69 24
-38 24 72 0 64 -4 116 -9 116 -12 0 -21 -25 -21 -56 0 -33 -20 -39 -145 -42
l-105 -3 -1 93 c-1 99 1 151 6 156 7 8 207 14 239 8 27 -5 37 -15 56 -56 13
-28 27 -50 32 -50 4 0 8 29 8 65 l0 65 -260 0 c-167 0 -260 -4 -260 -10z"/>
<path d="M7690 2840 c0 -5 15 -10 33 -10 63 0 62 6 65 -275 2 -187 0 -260 -9
-271 -6 -8 -26 -14 -45 -14 -18 0 -36 -5 -39 -10 -4 -7 85 -9 271 -8 l278 3 6
25 c4 14 10 49 14 78 8 64 -2 62 -40 -8 -36 -67 -72 -80 -213 -80 -60 0 -116
3 -125 6 -14 5 -16 27 -16 140 l0 134 108 0 c121 0 136 -7 148 -68 14 -69 24
-38 24 72 0 64 -4 116 -9 116 -11 0 -21 -25 -21 -55 0 -13 -5 -27 -12 -31 -6
-4 -63 -9 -125 -12 l-113 -4 -1 88 c-2 98 1 157 7 163 7 7 224 13 248 7 14 -3
31 -24 46 -56 13 -27 27 -50 32 -50 4 0 8 29 8 65 l0 65 -260 0 c-167 0 -260
-4 -260 -10z"/>
<path d="M8915 2840 c3 -5 23 -10 44 -10 20 0 42 -5 49 -12 16 -16 17 -490 2
-519 -6 -10 -21 -19 -33 -19 -30 0 -67 -11 -67 -19 0 -6 274 -8 290 -2 13 4
-28 21 -51 21 -15 0 -31 6 -37 13 -13 15 -19 507 -8 526 4 6 19 11 34 12 15 0
36 4 47 9 12 5 -36 9 -128 9 -96 1 -146 -2 -142 -9z"/>
<path d="M7294 1968 c-59 -15 -104 -85 -88 -135 21 -66 56 -93 121 -93 45 0
77 20 98 60 47 91 -33 194 -131 168z m91 -43 c19 -18 25 -35 25 -70 0 -59 -34
-95 -91 -95 -86 0 -121 123 -50 177 28 22 89 16 116 -12z"/>
<path d="M2970 1961 c0 -6 17 -11 37 -13 l38 -3 -4 -82 c-3 -84 3 -123 20
-123 5 0 9 47 9 105 l0 105 35 0 c19 0 35 5 35 10 0 6 -35 10 -85 10 -47 0
-85 -4 -85 -9z"/>
<path d="M3327 1963 c-4 -7 -2 -190 2 -215 2 -12 141 -10 141 2 0 6 -27 10
-60 10 l-60 0 0 45 0 45 55 0 c30 0 55 5 55 10 0 6 -25 10 -55 10 l-55 0 0 40
0 40 60 0 c33 0 60 4 60 10 0 12 -137 14 -143 3z"/>
<path d="M3674 1858 l1 -113 63 -3 c38 -2 62 1 62 8 0 5 -22 10 -50 10 l-50 0
0 105 c0 82 -3 105 -14 105 -11 0 -13 -23 -12 -112z"/>
<path d="M4051 1952 c-12 -22 -91 -204 -91 -209 0 -2 4 -3 10 -3 5 0 16 14 25
30 15 28 19 30 74 30 56 0 59 -1 71 -30 12 -28 30 -41 30 -21 0 19 -89 216
-98 219 -6 2 -15 -5 -21 -16z m59 -119 c0 -9 -16 -13 -46 -13 -25 0 -44 4 -42
8 2 4 12 32 23 61 l20 53 22 -48 c13 -27 23 -55 23 -61z"/>
<path d="M4821 1952 c-12 -22 -91 -204 -91 -209 0 -2 4 -3 10 -3 5 0 16 14 25
30 15 28 19 30 74 30 56 0 59 -1 71 -30 12 -28 30 -41 30 -21 0 19 -89 216
-98 219 -6 2 -15 -5 -21 -16z m34 -49 c33 -80 33 -83 -20 -83 -52 0 -51 -6
-17 77 9 24 18 43 19 43 2 0 10 -17 18 -37z"/>
<path d="M5135 1904 c2 -38 4 -90 4 -116 1 -27 6 -48 11 -48 6 0 10 25 10 55
0 47 3 55 19 55 13 0 30 -18 50 -55 17 -30 36 -55 41 -55 15 0 12 9 -16 57
l-26 44 26 24 c29 27 33 52 12 80 -10 13 -30 20 -73 23 l-61 4 3 -68z m107 29
c10 -9 18 -20 18 -24 0 -19 -34 -39 -66 -39 -33 0 -34 1 -34 40 0 38 1 40 32
40 17 0 40 -7 50 -17z"/>
<path d="M5450 1961 c0 -6 17 -11 37 -13 l38 -3 -4 -82 c-3 -84 3 -123 20
-123 5 0 9 47 9 105 l0 105 35 0 c19 0 35 5 35 10 0 6 -35 10 -85 10 -47 0
-85 -4 -85 -9z"/>
<path d="M5807 1963 c-4 -7 -2 -190 2 -215 2 -12 141 -10 141 2 0 6 -27 10
-60 10 l-60 0 0 45 0 45 55 0 c30 0 55 5 55 10 0 6 -25 10 -55 10 l-55 0 0 40
0 40 60 0 c33 0 60 4 60 10 0 12 -137 14 -143 3z"/>
<path d="M6314 1858 l1 -113 73 -3 c45 -2 72 1 72 8 0 6 -25 10 -60 10 l-60 0
0 45 0 45 55 0 c30 0 55 5 55 10 0 6 -25 10 -55 10 l-55 0 0 40 0 40 60 0 c33
0 60 4 60 10 0 6 -31 10 -74 10 l-73 0 1 -112z"/>
<path d="M6852 1940 c-78 -77 -28 -200 81 -200 36 0 88 32 75 46 -5 4 -16 0
-26 -9 -22 -20 -80 -22 -103 -4 -9 7 -21 22 -27 34 -23 42 -10 101 27 130 21
16 76 16 101 1 10 -7 23 -9 27 -4 15 15 -31 36 -78 36 -39 0 -53 -5 -77 -30z"/>
<path d="M7655 1943 c1 -16 3 -67 3 -115 3 -123 22 -114 22 9 l0 97 65 -95
c36 -52 72 -95 80 -97 13 -3 15 16 15 112 0 141 -18 157 -22 19 l-3 -96 -65
96 c-66 98 -99 122 -95 70z"/>
<path d="M8032 1959 c44 -126 84 -219 93 -219 13 0 100 218 91 228 -11 10 -22
-10 -50 -88 -15 -42 -31 -81 -35 -88 -5 -9 -20 20 -43 79 -19 51 -41 95 -48
97 -8 3 -11 -1 -8 -9z"/>
<path d="M8408 1963 c-3 -7 -3 -161 1 -205 1 -15 11 -18 71 -18 40 0 70 4 70
10 0 6 -27 10 -60 10 l-60 0 0 45 0 45 55 0 c30 0 55 5 55 10 0 6 -25 10 -55
10 l-55 0 0 40 0 40 60 0 c33 0 60 4 60 10 0 12 -137 14 -142 3z"/>
<path d="M8753 1878 c-2 -102 2 -138 17 -138 6 0 10 25 10 55 0 47 3 55 19 55
13 0 30 -18 50 -55 17 -30 36 -55 41 -55 16 0 12 13 -19 63 -28 44 -29 46 -10
52 46 15 49 88 3 105 -14 6 -44 10 -67 10 l-42 0 -2 -92z m111 56 c9 -8 16
-19 16 -24 0 -20 -34 -40 -66 -40 -33 0 -34 1 -34 40 0 39 1 40 34 40 19 0 42
-7 50 -16z"/>
<path d="M9116 1951 c-10 -11 -16 -31 -14 -48 2 -22 13 -33 53 -53 51 -26 66
-50 45 -75 -15 -18 -61 -20 -78 -3 -17 17 -28 2 -12 -17 13 -16 76 -21 96 -7
6 4 16 17 23 29 18 36 -1 68 -53 88 -61 23 -73 60 -27 84 12 7 26 6 44 -4 29
-15 43 -9 26 12 -17 20 -83 16 -103 -6z"/>
<path d="M9511 1952 c-12 -22 -91 -204 -91 -209 0 -2 4 -3 10 -3 5 0 16 14 25
30 15 28 19 30 74 30 56 0 59 -1 71 -30 12 -28 30 -41 30 -21 0 19 -89 216
-98 219 -6 2 -15 -5 -21 -16z m34 -49 c33 -80 33 -83 -20 -83 -52 0 -51 -6
-17 77 9 24 18 43 19 43 2 0 10 -17 18 -37z"/>
<path d="M4361 1739 c-13 -39 -13 -39 -2 -39 5 0 14 14 20 31 13 39 13 39 2
39 -5 0 -14 -14 -20 -31z"/>
</g>
</svg>
